Coordinates
version=1
nRows=19
nColumns=36
inDegrees=yes

Units are S.I. units (second, meters, Newtons, ...)
If the header above contains a line with 'inDegrees', this indicates whether rotational values are in degrees (yes) or radians (no).

endheader
time	pelvis_tilt	pelvis_list	pelvis_rotation	pelvis_tx	pelvis_ty	pelvis_tz	hip_flexion_r	hip_adduction_r	hip_rotation_r	knee_angle_r	knee_angle_r_beta	ankle_angle_r	subtalar_angle_r	mtp_angle_r	hip_flexion_l	hip_adduction_l	hip_rotation_l	knee_angle_l	knee_angle_l_beta	ankle_angle_l	subtalar_angle_l	mtp_angle_l	lumbar_extension	lumbar_bending	lumbar_rotation	arm_flex_r	arm_add_r	arm_rot_r	elbow_flex_r	pro_sup_r	arm_flex_l	arm_add_l	arm_rot_l	elbow_flex_l	pro_sup_l
      1.38333330	     -9.06079939	     -0.44854671	      8.30303744	     -0.94448583	      1.22800233	     -0.07459063	     16.70527698	     -4.46430337	     -2.85672338	     13.79985286	      0.24085287	     12.95911185	      0.14460932	     -7.49999595	     12.07736914	     -1.34246436	     -2.24065732	      8.31999397	      0.14521129	     18.79316903	     12.11773456	     -7.49999595	     25.32203534	     -0.18633015	     -0.49228827	     -5.78530599	    -15.54594265	     33.64237056	     17.84341113	     85.84733948	     -9.54882660	    -14.28709780	     32.54977466	     13.60802961	     88.27475453
      1.40000000	     -9.13112732	     -0.46905590	      8.13363706	     -0.94486318	      1.22448949	     -0.07432017	     16.64297557	     -4.37649784	     -2.50925662	     13.59709914	      0.23731415	     12.97254515	     -0.10033167	     -7.49999673	     12.09492390	     -1.41141942	     -2.36151406	      8.37991522	      0.14625711	     18.88238314	     12.16582725	     -7.49999673	     25.54206179	     -0.05202985	     -0.37218150	     -5.35678672	    -15.59546975	     34.18187148	     18.16175417	     85.45008199	     -9.74462895	    -14.16989216	     32.60654827	     13.42210786	     87.72988163
      1.41666670	     -9.17092625	     -0.47743569	      7.99939782	     -0.94411926	      1.22821992	     -0.07409653	     16.55975086	     -4.33664031	     -2.31084835	     13.39426226	      0.23377398	     12.99478322	     -0.19983505	     -7.49999747	     12.05090706	     -1.46849121	     -2.44490629	      8.39469811	      0.14651512	     18.96255704	     12.11876839	     -7.49999747	     25.73081461	      0.06906653	     -0.36819519	     -4.74010146	    -15.68984205	     35.40315195	     18.17184614	     85.66015386	     -9.93753444	    -14.23313797	     33.71756928	     13.44208592	     88.18047812
      1.43333330	     -9.16292705	     -0.53164766	      7.91901053	     -0.94338469	      1.22803970	     -0.07393107	     16.37745662	     -4.25613089	     -2.18780701	     13.11489045	      0.22889802	     13.03972715	     -0.30502291	     -7.49999763	     11.92750626	     -1.57626219	     -2.56300861	      8.39145012	      0.14645843	     18.90150047	     12.14210000	     -7.49999763	     25.87001385	      0.17942627	     -0.37323453	     -4.59721234	    -15.76824352	     35.32334542	     18.51479993	     85.06718993	    -10.08344520	    -14.17111121	     33.72699733	     13.41897544	     87.58387448
      1.45000000	     -9.33999811	     -0.59027801	      7.80948705	     -0.94348489	      1.22799403	     -0.07380330	     16.49047579	     -4.20696526	     -2.06335669	     12.99129208	      0.22674082	     13.07460428	     -0.37441413	     -7.49999801	     12.01098220	     -1.68815004	     -2.74055958	      8.46395453	      0.14772387	     18.92405624	     12.16369376	     -7.49999801	     26.28504381	      0.31618136	     -0.26980547	     -4.15914505	    -15.73381221	     35.91013024	     18.40779530	     84.39019312	    -10.17580096	    -14.09654732	     34.25892811	     13.08930982	     86.91291848
      1.46666670	     -9.65942635	     -0.62963996	      7.80852376	     -0.94208319	      1.23104152	     -0.07372448	     16.74101404	     -4.20809869	     -1.82416978	     12.91675624	      0.22543993	     13.07439058	     -0.72768273	     -7.49999816	     12.21177507	     -1.70631389	     -2.50720225	      8.45306772	      0.14753386	     18.73721727	     11.59834857	     -7.49999816	     26.84097244	      0.27808413	     -0.39536368	     -4.39495867	    -15.93531006	     35.79209662	     19.55382160	     83.13323074	    -10.15795986	    -14.04309515	     34.18967811	     14.16507863	     85.60789191
      1.48333330	     -9.29255160	     -0.69468018	      7.62858018	     -0.93529653	      1.22431082	     -0.06984030	     16.19457665	     -3.99842323	     -1.69670584	     12.69462609	      0.22156302	     13.02785257	     -0.83944719	     -7.49999883	     11.64020463	     -1.98737916	     -2.99526201	      8.48829276	      0.14814866	     18.62643624	     11.70394015	     -7.49999883	     26.57164187	      0.46374287	     -0.21860643	     -4.17595449	    -15.87334256	     34.64717658	     19.28274086	     90.81546395	     -9.47361772	    -14.05740135	     35.70556079	     14.38366129	     93.77882199
      1.50000000	     -9.32412439	     -0.73264154	      7.45125173	     -0.93413161	      1.22775923	     -0.06952342	     16.10509715	     -3.88952618	     -1.52991199	     12.56868094	      0.21936487	     12.98535819	     -0.98258452	     -7.49999906	     11.53684507	     -2.13857840	     -3.16462919	      8.49172863	      0.14820862	     18.66360610	     11.68062146	     -7.49999906	     26.78062246	      0.56148564	     -0.29376191	     -3.94645364	    -16.04897820	     36.29902437	     19.34382134	     90.04906171	     -9.44498334	    -13.96806441	     36.88114981	     14.91903702	     92.51933191
      1.51666670	     -9.37197691	     -0.76762635	      7.43077819	     -0.93553072	      1.23262800	     -0.06961331	     16.11760098	     -3.83073253	     -1.51018475	     12.58196579	      0.21959673	     12.98441574	     -0.96428626	     -7.49999906	     11.49655771	     -2.21996861	     -3.17034276	      8.42291395	      0.14700758	     18.65294539	     11.65863759	     -7.49999906	     26.89857659	      0.62204659	     -0.32907829	     -3.89366694	    -16.01505450	     36.32323365	     19.37979206	     90.08407598	     -9.20447803	    -13.73338733	     36.90823962	     15.11272950	     92.54755282
      1.53333330	     -9.40458576	     -0.83927127	      7.37505743	     -0.93493864	      1.23271375	     -0.06958714	     16.15741359	     -3.71102786	     -1.45477124	     12.61163904	      0.22011463	     12.99035626	     -0.98305535	     -7.49999912	     11.40007760	     -2.31429502	     -3.20007206	      8.29748207	      0.14481838	     18.58564850	     11.52689303	     -7.49999912	     27.01903692	      0.77472090	     -0.24762897	     -3.79324243	    -16.12767980	     37.29412448	     19.20256483	     91.65113491	     -9.11346682	    -13.92975579	     38.60638655	     16.21569833	     94.01531143
      1.55000000	     -9.38392959	     -0.84021986	      7.36648874	     -0.93523123	      1.23327551	     -0.06949501	     16.12944395	     -3.66821479	     -1.42464601	     12.62437175	      0.22033685	     12.93168852	     -0.99721702	     -7.49999916	     11.26887181	     -2.33687265	     -3.38153370	      8.17282599	      0.14264272	     18.54380288	     11.64988889	     -7.49999916	     27.01791647	      0.79225598	     -0.03212088	     -4.10417823	    -16.28163236	     37.35070029	     19.53067798	     90.90987269	     -8.83296816	    -13.83543191	     38.73493984	     16.62568670	     93.14175241
      1.56666670	     -9.47483288	     -0.86778766	      7.39359053	     -0.93483442	      1.23279277	     -0.06951344	     16.23723359	     -3.62773976	     -1.44016146	     12.66496529	      0.22104534	     12.95890604	     -1.03550430	     -7.49999930	     11.34643546	     -2.35403489	     -3.34780126	      8.16996737	      0.14259283	     18.45739228	     11.53785776	     -7.49999930	     27.20969422	      0.80805009	     -0.00696419	     -4.22312261	    -16.36650994	     38.12939528	     19.40305282	     91.45443045	     -8.53074048	    -13.88678550	     40.66902074	     16.96407896	     93.29303323
      1.58333330	     -9.35559405	     -0.86099043	      7.40547401	     -0.93600928	      1.22930846	     -0.06957298	     16.09825538	     -3.58742905	     -1.48365578	     12.64451022	      0.22068834	     12.97525236	     -0.95965922	     -7.49999932	     11.16709972	     -2.34535642	     -3.26376689	      8.10651517	      0.14148538	     18.32280678	     11.24585807	     -7.49999932	     26.97995488	      0.82415456	      0.05283427	     -4.48274261	    -16.42771504	     37.62373670	     19.57948706	     91.37163577	     -8.32121811	    -13.83094272	     40.21011746	     17.47617603	     93.06379427
      1.60000000	     -9.14055996	     -0.84746099	      7.37834548	     -0.93477965	      1.23321617	     -0.06940483	     15.84757143	     -3.52396327	     -1.43950049	     12.59289281	      0.21978744	     12.94532194	     -0.98714196	     -7.49999943	     10.90082459	     -2.37841776	     -3.35009736	      8.02676695	      0.14009351	     18.32963152	     11.34743938	     -7.49999943	     26.60400776	      0.89219631	      0.31631377	     -4.70279839	    -16.49057493	     37.87936624	     19.59590824	     88.98553843	     -8.11693947	    -13.78524632	     40.55638365	     17.81815286	     90.49494121
      1.61666670	     -9.45406057	     -0.87697934	      7.38432769	     -0.93519837	      1.23278180	     -0.06922085	     16.24373700	     -3.50229665	     -1.34305396	     12.69393628	      0.22155098	     12.92628290	     -1.11603239	     -7.49999954	     11.23567754	     -2.37308119	     -3.50138511	      8.02399370	      0.14004511	     18.23786101	     11.41259273	     -7.49999954	     27.08197375	      0.93766581	      0.31505910	     -4.63709199	    -16.52403789	     39.53600628	     18.88190373	     88.65084093	     -8.00109261	    -13.86259817	     42.96092468	     17.87515985	     89.59101868
      1.63333330	     -9.15110644	     -0.81660094	      7.37560113	     -0.93580782	      1.23040904	     -0.06940912	     15.91445524	     -3.53153271	     -1.51311350	     12.68773798	      0.22144280	     12.99257344	     -0.87647066	     -7.49999957	     10.80470936	     -2.30993288	     -3.30377047	      7.82848867	      0.13663290	     18.06697276	     11.05847039	     -7.49999957	     26.55850946	      0.97173171	      0.58153817	     -4.87313556	    -16.78734867	     39.51430146	     19.36122431	     87.89883958	     -7.83455107	    -13.94148129	     42.90504296	     18.38948286	     88.69566972
      1.65000000	     -9.16588228	     -0.82604137	      7.39854463	     -0.93612019	      1.22980622	     -0.06930016	     15.99625321	     -3.51224913	     -1.45180034	     12.73659142	      0.22229546	     12.96744308	     -0.96808629	     -7.49999971	     10.83412319	     -2.31103344	     -3.39488726	      7.85718241	      0.13713370	     18.12919482	     11.15833903	     -7.49999971	     26.46087751	      1.08125685	      0.89655838	     -5.22775515	    -16.56479336	     35.97164485	     19.14815004	     95.10446210	     -7.69340109	    -13.92306249	     41.78327301	     18.66860589	     94.40796603
      1.66666670	     -9.03468038	     -0.76779535	      7.35556521	     -0.93572180	      1.23083336	     -0.06924623	     15.88068954	     -3.53255434	     -1.30994493	     12.71848467	      0.22197943	     12.96955663	     -1.05565808	     -7.49999972	     10.61882635	     -2.26930419	     -3.53051451	      7.81968463	      0.13647924	     18.08345905	     11.25911400	     -7.49999972	     26.16481197	      1.14478639	      1.12087993	     -5.42104190	    -16.69147628	     36.12920381	     19.35319047	     93.64087754	     -7.67481864	    -13.95774180	     41.61541945	     19.02567503	     92.86761272
      1.68333330	     -8.87635426	     -0.74038796	      7.38474962	     -0.93633957	      1.23096029	     -0.06910027	     15.69564691	     -3.52625306	     -1.33430260	     12.66905542	      0.22111673	     12.97225359	     -1.01884093	     -7.49999975	     10.43122367	     -2.25502695	     -3.51327057	      7.83261578	      0.13670493	     18.07960250	     11.28210563	     -7.49999975	     25.83722277	      1.19414141	      1.23803888	     -5.65007446	    -16.83866554	     36.63774991	     19.36468708	     91.19493401	     -7.56197732	    -13.95545047	     41.76008436	     19.23031131	     90.34958238
